<svg version="1.2" xmlns="http://www.w3.org/2000/svg" viewBox="0 0 1213 473" width="1213" height="473">
	<style>
		.s0 { fill: #510097 } 
		.s1 { fill: #510197 } 
	</style>
	<g>
		<path fill-rule="evenodd" class="s0" d="m262.5 15.5q0 30.5 0 61-89.75-0.5-179 1 0 69.5 0 139 84 0 168 0 0 30.5 0 61-84 0-168 0 0 92 0 184-36 0-72 0 0-223 0-446 125.5 0 251 0z"/>
	</g>
	<g>
		<path fill-rule="evenodd" class="s0" d="m344.5 15.5q36.5 0 73 0 0 192 0 384 94.5 0 189 0 0 31 0 62-131 0-262 0 0-223 0-446z"/>
	</g>
	<g>
		<path fill-rule="evenodd" class="s0" d="m683.5 15.5q36.5 0 73 0 0 223 0 446-36.5 0-73 0 0-223 0-446z"/>
	</g>
	<g>
		<path fill-rule="evenodd" class="s1" d="m907.5 15.5q51.98 83.96 104 168 51.31-83.88 103-167.5 39-1 78 0-69.03 108.02-138 216 74.48 114.48 149 229-41.5 1-83 0-56.05-90.88-112.5-181.5-56.44 90.62-112.5 181.5-39.01 1.25-78-0.5 73.82-115.06 147-230.5-67.95-107.15-137-213.5 39.74-1.5 80-1z"/>
	</g>
</svg>