<svg version="1.2" xmlns="http://www.w3.org/2000/svg" viewBox="0 0 1213 473" width="1213" height="473"><style>.a{fill:#722fc4}</style><path fill-rule="evenodd" class="a" d="m262.5 15.5q0 30.5 0 61-89.8-0.5-179 1 0 69.5 0 139 84 0 168 0 0 30.5 0 61-84 0-168 0 0 92 0 184-36 0-72 0 0-223 0-446 125.5 0 251 0z"/><path fill-rule="evenodd" class="a" d="m344.5 15.5q36.5 0 73 0 0 192 0 384 94.5 0 189 0 0 31 0 62-131 0-262 0 0-223 0-446z"/><path fill-rule="evenodd" class="a" d="m683.5 15.5q36.5 0 73 0 0 223 0 446-36.5 0-73 0 0-223 0-446z"/><path fill-rule="evenodd" class="a" d="m907.5 15.5q52 84 104 168 51.3-83.9 103-167.5 39-1 78 0-69 108-138 216 74.5 114.5 149 229-41.5 1-83 0-56-90.9-112.5-181.5-56.4 90.6-112.5 181.5-39 1.3-78-0.5 73.8-115.1 147-230.5-68-107.1-137-213.5 39.7-1.5 80-1z"/></svg>